<svg width="17" height="17" viewBox="0 0 17 17" fill="none" xmlns="http://www.w3.org/2000/svg">
<path fill-rule="evenodd" clip-rule="evenodd" d="M7.91079 6.77809L7.94847 6.77997C8.08588 6.77997 8.21854 6.71429 8.3036 6.6038C8.39799 6.48055 8.42294 6.3197 8.37061 6.17399C8.36613 6.16141 7.93734 4.91577 8.49417 3.87852C9.08522 2.89027 9.27786 2.09474 9.06632 1.51393C8.87639 0.992229 8.44806 0.853548 8.40096 0.84002C8.1664 0.770898 7.91207 0.909313 7.84285 1.14444C7.77255 1.3834 7.90823 1.63582 8.12644 1.69988C8.12901 1.70099 8.18947 1.73106 8.22412 1.82597C8.27502 1.96558 8.32923 2.3977 7.74014 3.38731L7.71848 3.42396C7.67348 3.49865 7.62496 3.57634 7.57246 3.65721C6.89076 4.7108 6.68655 5.54034 6.96551 6.12193C7.18995 6.59155 7.66313 6.75506 7.91079 6.77809ZM14.2527 14.4287C13.6505 14.386 12.9613 14.3525 12.2176 14.3271C12.8962 13.7369 13.4692 12.9719 13.8903 12.0818C14.096 12.2893 14.3516 12.4405 14.6412 12.5109C14.768 12.5426 14.8962 12.5575 15.0234 12.5575C15.3147 12.5575 15.6011 12.4771 15.8561 12.3205C16.2225 12.0954 16.4803 11.74 16.5815 11.3195C16.6828 10.8991 16.6155 10.464 16.3922 10.0949C16.018 9.47571 15.2959 9.20684 14.6325 9.37326C14.6612 9.08444 14.6808 8.79245 14.6808 8.49413C14.6808 8.18278 14.4308 7.93019 14.1218 7.93019H3.77307C3.4643 7.93019 3.21396 8.18278 3.21396 8.49413C3.21396 10.9074 4.18913 13.0398 5.67406 14.3274C4.93157 14.3527 4.24355 14.3865 3.64233 14.4287C1.54935 14.5765 0.940796 14.7167 0.940796 15.3628C0.940796 16.0085 1.54935 16.149 3.64233 16.2967C5.06135 16.3967 6.9455 16.452 8.94749 16.452C10.9493 16.452 12.8334 16.3967 14.2527 16.2967C16.3456 16.149 16.954 16.0085 16.954 15.3628C16.954 14.7167 16.3456 14.5765 14.2527 14.4287ZM14.5207 10.1369C14.5228 10.1352 14.5251 10.1346 14.5274 10.134C14.5296 10.1335 14.5317 10.1329 14.5337 10.1315C14.9739 9.86139 15.5508 10.0027 15.8193 10.4468C15.9494 10.6616 15.9883 10.9152 15.9294 11.1603C15.8705 11.4049 15.7207 11.6118 15.5069 11.7426C15.2936 11.8741 15.0421 11.9134 14.7996 11.8542C14.5568 11.7945 14.3513 11.6434 14.2215 11.428C14.2147 11.4165 14.2056 11.4079 14.1964 11.3993C14.1913 11.3946 14.1863 11.3899 14.1816 11.3846C14.3248 10.9862 14.4376 10.5687 14.5207 10.1369ZM4.35249 9.05773H13.5425C13.3228 12.096 11.3458 14.4818 8.94749 14.4818C6.54912 14.4818 4.57227 12.096 4.35249 9.05773ZM10.3284 6.86298L10.2971 6.86186C10.0639 6.83925 9.74739 6.69852 9.59307 6.37571C9.39504 5.96354 9.51987 5.42121 9.97513 4.71775C10.0026 4.67517 10.0287 4.63337 10.053 4.59345L10.0788 4.55028C10.4299 3.96117 10.3685 3.74731 10.3603 3.72511L10.3607 3.72526C10.3636 3.72655 10.3817 3.73439 10.4063 3.7413C10.2989 3.70919 10.21 3.63631 10.1568 3.53694C10.103 3.43681 10.0912 3.32188 10.1235 3.21335C10.1868 2.99614 10.4289 2.86278 10.6468 2.92641C10.7085 2.94518 11.0145 3.05481 11.1518 3.43099C11.2999 3.83801 11.1807 4.35475 10.7882 5.01041C10.4826 5.58035 10.7226 6.28696 10.725 6.29391C10.7743 6.43128 10.7507 6.58264 10.6614 6.69844C10.5816 6.80175 10.4572 6.86298 10.3284 6.86298Z" fill="white"/>
</svg>
