<svg width="17" height="16" viewBox="0 0 17 16" fill="none" xmlns="http://www.w3.org/2000/svg">
<path fill-rule="evenodd" clip-rule="evenodd" d="M16.2622 0.698751C16.3176 0.669879 16.3856 0.676917 16.4359 0.715275C16.4849 0.754425 16.507 0.817983 16.4922 0.879309L13.5809 12.7609C13.5703 12.8043 13.5422 12.8399 13.5037 12.8622C13.4794 12.8758 13.4515 12.8833 13.4237 12.8833C13.4079 12.8833 13.3923 12.8809 13.3769 12.8764L7.55328 11.1203C7.50138 11.1046 7.46106 11.064 7.44535 11.013C7.4303 10.9611 7.44215 10.9054 7.47708 10.8644L13.2741 4.07258L5.72691 10.4585C5.68488 10.4969 5.62469 10.5091 5.57022 10.4922L0.608291 8.9299C0.546123 8.91012 0.501948 8.85495 0.496172 8.79045C0.491061 8.72544 0.525014 8.66438 0.583971 8.63464L16.2622 0.698751ZM7.64813 12.3652L9.25736 12.8555C9.30543 12.87 9.34384 12.9062 9.36146 12.9531C9.37909 12.9994 9.37364 13.0516 9.34639 13.0935L7.73719 15.6107C7.70641 15.6577 7.65482 15.6853 7.60067 15.6853C7.58534 15.6853 7.57027 15.6827 7.55585 15.6789C7.48637 15.6589 7.43894 15.5965 7.43894 15.525V12.5182C7.43894 12.4676 7.46298 12.4195 7.50459 12.3895C7.54593 12.3591 7.5994 12.3496 7.64813 12.3652Z" fill="white"/>
</svg>
