<svg width="17" height="17" viewBox="0 0 17 17" fill="none" xmlns="http://www.w3.org/2000/svg">
<path fill-rule="evenodd" clip-rule="evenodd" d="M15.6167 4.14842H9.93632L12.177 1.46615C12.2129 1.47258 12.2437 1.48645 12.2808 1.48645C12.6497 1.48645 12.948 1.18864 12.948 0.820591C12.948 0.454594 12.6497 0.154907 12.2808 0.154907C11.9139 0.154907 11.6137 0.454594 11.6137 0.820591C11.6137 0.901094 11.6338 0.975194 11.6596 1.0461L9.06776 4.14842H8.82359L6.23296 1.0461C6.25809 0.975194 6.27764 0.901094 6.27764 0.820591C6.27764 0.454594 5.97933 0.154907 5.6105 0.154907C5.24292 0.154907 4.94331 0.454594 4.94331 0.820591C4.94331 1.18864 5.24292 1.48645 5.6105 1.48645C5.64762 1.48645 5.67971 1.47258 5.71431 1.46615L7.95563 4.14842H2.27528C1.53887 4.14842 0.941589 4.74525 0.941589 5.47937V14.7979C0.941589 15.5327 1.53887 16.1286 2.27528 16.1286H15.6167C16.3531 16.1286 16.9504 15.5327 16.9504 14.7979V5.47937C16.9504 4.74525 16.3531 4.14842 15.6167 4.14842ZM12.948 13.4664C12.948 14.2011 12.3513 14.7979 11.6137 14.7979H3.60961C2.87321 14.7979 2.27528 14.2011 2.27528 13.4664V6.81065C2.27528 6.07525 2.87321 5.47937 3.60961 5.47937H11.6137C12.3513 5.47937 12.948 6.07525 12.948 6.81065V13.4664ZM14.9136 7.51771C14.3874 7.51771 13.9607 7.0915 13.9607 6.56714C13.9607 6.0421 14.3874 5.61691 14.9136 5.61691C15.4392 5.61691 15.8659 6.0421 15.8659 6.56714C15.8659 7.0915 15.4392 7.51771 14.9136 7.51771Z" fill="white"/>
</svg>
