<svg width="13" height="17" viewBox="0 0 13 17" fill="none" xmlns="http://www.w3.org/2000/svg">
<path fill-rule="evenodd" clip-rule="evenodd" d="M9.15492 5.74649L12.2196 14.0132C12.3998 14.4499 12.3466 14.9621 12.0713 15.3685C11.796 15.775 11.3372 16.017 10.8437 16.017H2.12188C1.62841 16.017 1.16964 15.775 0.894162 15.3692C0.618897 14.9621 0.565617 14.4495 0.751932 13.9973L3.81084 5.74649V3.31337C3.23131 3.11321 2.81622 2.56812 2.81622 1.9289V1.53182C2.81622 0.72318 3.47979 0.0655518 4.29552 0.0655518H8.66995C9.48565 0.0655518 10.1493 0.72318 10.1493 1.53182V1.9289C10.1493 2.5689 9.73306 3.11458 9.15492 3.31406V5.74649ZM4.61244 11.6392C4.33494 11.6392 4.10944 11.8619 4.10944 12.1393C4.10944 12.416 4.33494 12.6387 4.61244 12.6387C4.89208 12.6387 5.11771 12.416 5.11771 12.1393C5.11771 11.8619 4.89208 11.6392 4.61244 11.6392ZM8.23036 13.4374C8.23036 12.9625 7.84081 12.5751 7.35901 12.5751C6.87676 12.5751 6.48807 12.9625 6.48807 13.4374C6.48807 13.9144 6.87676 14.3018 7.35901 14.3018C7.84081 14.3018 8.23036 13.9144 8.23036 13.4374ZM7.24609 10.0603C6.89878 10.0603 6.61735 10.3403 6.61735 10.6823C6.61735 11.0255 6.89878 11.3045 7.24609 11.3045C7.59151 11.3045 7.87281 11.0255 7.87281 10.6823C7.87281 10.3403 7.59151 10.0603 7.24609 10.0603ZM4.78932 2.91004V5.91873L3.64783 8.99732H3.69292C3.69292 8.99732 8.36235 8.92143 9.00133 8.26346C9.00771 8.257 9.01362 8.25194 9.01954 8.24687C9.02446 8.24266 9.02939 8.23843 9.03462 8.23339L8.1763 5.91873V2.42499H8.66551C8.94604 2.42499 9.17067 2.20239 9.17067 1.9289V1.53182C9.17067 1.25799 8.94604 1.03539 8.66995 1.03539H4.29552C4.01944 1.03539 3.79464 1.25799 3.79464 1.53182V1.9289C3.79464 2.20239 4.01944 2.42499 4.29552 2.42499H4.78488L4.78932 2.91004ZM6.82297 7.11068C6.82297 7.48376 6.51742 7.78706 6.14251 7.78706C5.7654 7.78706 5.4603 7.48376 5.4603 7.11068C5.4603 6.73911 5.7654 6.43547 6.14251 6.43547C6.51742 6.43547 6.82297 6.73911 6.82297 7.11068Z" fill="white"/>
</svg>
